<svg width="28" height="28" viewBox="0 0 28 28" fill="none" xmlns="http://www.w3.org/2000/svg">
<path d="M14.0001 27.3333C6.63608 27.3333 0.666748 21.364 0.666748 14C0.666748 6.63596 6.63608 0.666626 14.0001 0.666626C21.3641 0.666626 27.3334 6.63596 27.3334 14C27.3334 21.364 21.3641 27.3333 14.0001 27.3333ZM12.1627 9.21996C12.0825 9.16642 11.9892 9.13565 11.8929 9.13092C11.7965 9.12619 11.7007 9.14768 11.6156 9.19311C11.5305 9.23853 11.4593 9.30619 11.4096 9.38887C11.3599 9.47155 11.3336 9.56616 11.3334 9.66263V18.3373C11.3336 18.4338 11.3599 18.5284 11.4096 18.611C11.4593 18.6937 11.5305 18.7614 11.6156 18.8068C11.7007 18.8522 11.7965 18.8737 11.8929 18.869C11.9892 18.8643 12.0825 18.8335 12.1627 18.78L18.6681 14.444C18.7412 14.3953 18.8012 14.3293 18.8427 14.2518C18.8842 14.1743 18.9059 14.0878 18.9059 14C18.9059 13.9121 18.8842 13.8256 18.8427 13.7481C18.8012 13.6706 18.7412 13.6046 18.6681 13.556L12.1627 9.21996Z" fill="url(#paint0_linear_42_202)"/>
<defs>
<linearGradient id="paint0_linear_42_202" x1="0.666749" y1="14" x2="23.6583" y2="7.05284" gradientUnits="userSpaceOnUse">
<stop stop-color="#FF52AF"/>
<stop offset="1" stop-color="#9F53FF"/>
</linearGradient>
</defs>
</svg>
