<svg width="22" height="29" viewBox="0 0 22 29" fill="none" xmlns="http://www.w3.org/2000/svg">
<path d="M9.1066 9.72L6.6666 10.608V15.3333H3.99993V8.73333H4.01993L11.0439 6.176C11.3693 6.052 11.7239 5.98933 12.0866 6.00133C12.8113 6.0194 13.5123 6.26281 14.0923 6.69771C14.6722 7.13261 15.1022 7.7374 15.3226 8.428C15.5706 9.20533 15.7973 9.73067 16.0026 10.004C16.6231 10.8315 17.428 11.503 18.3533 11.9652C19.2786 12.4274 20.2989 12.6675 21.3333 12.6667V15.3333C19.9563 15.3348 18.5962 15.031 17.3507 14.4438C16.1053 13.8566 15.0055 13.0006 14.1306 11.9373L13.3559 16.3333L15.9999 18.8933V28.6667H13.3333V20.6853L10.5999 18.036L9.33726 23.7667L0.145264 22.1467L0.609264 19.52L7.1746 20.6773L9.1066 9.72ZM13.9999 5.33333C13.2927 5.33333 12.6144 5.05238 12.1143 4.55228C11.6142 4.05219 11.3333 3.37391 11.3333 2.66667C11.3333 1.95942 11.6142 1.28115 12.1143 0.781048C12.6144 0.280951 13.2927 0 13.9999 0C14.7072 0 15.3855 0.280951 15.8855 0.781048C16.3856 1.28115 16.6666 1.95942 16.6666 2.66667C16.6666 3.37391 16.3856 4.05219 15.8855 4.55228C15.3855 5.05238 14.7072 5.33333 13.9999 5.33333Z" fill="url(#paint0_linear_42_198)"/>
<defs>
<linearGradient id="paint0_linear_42_198" x1="0.145265" y1="14.3333" x2="19.134" y2="10.0926" gradientUnits="userSpaceOnUse">
<stop stop-color="#FF52AF"/>
<stop offset="1" stop-color="#9F53FF"/>
</linearGradient>
</defs>
</svg>
